Coordinates
version=1
nRows=13
nColumns=36
inDegrees=yes

Units are S.I. units (second, meters, Newtons, ...)
If the header above contains a line with 'inDegrees', this indicates whether rotational values are in degrees (yes) or radians (no).

endheader
time	pelvis_tilt	pelvis_list	pelvis_rotation	pelvis_tx	pelvis_ty	pelvis_tz	hip_flexion_r	hip_adduction_r	hip_rotation_r	knee_angle_r	knee_angle_r_beta	ankle_angle_r	subtalar_angle_r	mtp_angle_r	hip_flexion_l	hip_adduction_l	hip_rotation_l	knee_angle_l	knee_angle_l_beta	ankle_angle_l	subtalar_angle_l	mtp_angle_l	lumbar_extension	lumbar_bending	lumbar_rotation	arm_flex_r	arm_add_r	arm_rot_r	elbow_flex_r	pro_sup_r	arm_flex_l	arm_add_l	arm_rot_l	elbow_flex_l	pro_sup_l
      5.36666670	     -4.84217564	     -1.38281014	      0.15316541	      0.26825651	      0.83861526	     -0.04019989	     15.50375719	     -6.22826288	    -11.02900769	     24.28233390	      0.42380668	     10.39233048	     -5.99099920	     -7.49999987	     18.06746092	    -13.56967249	    -13.11363940	     28.21764810	      0.49249087	      9.67353772	     -6.91349103	     -7.49999987	    -12.69969787	     -0.27382330	      1.48253651	     98.91341284	      4.03692916	     64.96919191	    120.21009657	     99.43665441	     89.16002782	      8.60128192	     59.11960692	    132.28348285	     85.96403292
      5.38333330	     -5.12587969	     -1.27405333	      0.52804046	      0.27361348	      0.84548469	     -0.04063198	     13.65710275	     -5.87574918	    -11.28694285	     20.70648028	      0.36139626	      8.47958478	     -6.11366898	     -7.49999987	     16.24355016	    -12.92146448	    -13.91414711	     24.41508606	      0.42612364	      8.16323778	     -5.85083981	     -7.49999987	    -11.66726553	     -0.12409127	      1.13875587	     98.74077394	      4.38019915	     64.82221265	    120.13281733	     99.86199954	     88.89265064	      9.21072732	     57.98590566	    133.32817418	     86.35381364
      5.40000000	     -5.51282077	     -1.13242905	      0.73990798	      0.27414051	      0.84806249	     -0.04170595	     12.21255100	     -5.65621956	    -11.60974487	     17.39616284	      0.30362032	      7.03969282	     -5.61808952	     -7.49999987	     14.73594322	    -12.21812513	    -14.64936818	     20.97745101	      0.36612559	      7.16117209	     -4.52488146	     -7.49999987	    -10.52397610	     -0.06909053	      1.11246029	     98.40799543	      4.33886802	     64.64079798	    119.21834804	    101.99974521	     88.71249143	      9.43272597	     56.95729291	    132.97012614	     87.75949353
      5.41666670	     -5.95532259	     -0.89859073	      0.57100664	      0.28000627	      0.84494962	     -0.04334414	     10.81922029	     -5.58310304	    -12.14715020	     14.28922163	      0.24939397	      6.12094301	     -4.93801566	     -7.49999987	     12.96820185	    -11.41165692	    -16.00454167	     17.29391296	      0.30183572	      6.71798658	     -3.08938865	     -7.49999987	     -9.32183680	     -0.11331486	      0.73202577	     98.35257588	      4.91232973	     64.42553532	    118.49680523	    102.05607071	     88.60832363	      9.76969642	     55.43791369	    134.55842941	     86.28993242
      5.43333330	     -6.39720434	     -0.74339995	      0.36687853	      0.28276223	      0.84570825	     -0.04198954	      9.54529038	     -5.40212934	    -12.51124250	     11.36109200	      0.19828846	      5.40035769	     -3.95611464	     -7.49999987	     11.34703387	    -10.70754135	    -17.17201724	     13.85168759	      0.24175756	      6.11893959	     -2.10536553	     -7.49999987	     -8.10904894	     -0.20176583	      1.11819787	     98.12490205	      4.85662765	     63.99728063	    119.04002925	    101.23894879	     88.62347237	     10.73018425	     53.91402099	    135.53589940	     85.43469724
      5.45000000	     -6.80405862	     -0.45311889	      0.24133898	      0.28597334	      0.85212383	     -0.04264047	      8.23634867	     -5.36023807	    -12.96752106	      8.34586933	      0.14566290	      4.72280641	     -2.61090875	     -7.49999987	      9.72558514	     -9.85577911	    -18.41590643	     10.42452942	      0.18194236	      5.29210202	     -0.43456867	     -7.49999987	     -7.00189741	     -0.43699730	      0.66676021	     97.36919011	      4.89703027	     63.64041767	    119.72636869	    101.55374810	     87.95136907	      9.93095870	     53.92598764	    133.99060994	     85.76745234
      5.46666670	     -7.20315990	     -0.26405896	      0.16862989	      0.28677369	      0.84735477	     -0.04230928	      7.24159937	     -5.24661385	    -13.29566312	      5.95789465	      0.10398488	      4.17884899	     -1.62637387	     -7.49999987	      8.45966080	     -9.14868099	    -19.47056149	      7.59232431	      0.13251106	      4.54951787	      0.53393866	     -7.49999987	     -5.92495049	     -0.64615618	      0.27996339	     96.92627868	      5.12512834	     63.40264912	    120.29433239	    101.72958544	     87.68292769	      9.97681931	     53.12879654	    134.00559834	     85.91430915
      5.48333330	     -7.21704454	     -0.11401285	      0.12540796	      0.28214741	      0.84565653	     -0.04227041	      6.29401161	     -5.20151035	    -13.76409384	      4.22028655	      0.07365790	      4.24104752	     -0.28312915	     -7.49999987	      7.34706359	     -8.57905954	    -20.43850364	      5.47580531	      0.09557083	      4.41223276	      2.24170290	     -7.49999987	     -5.80969943	     -0.87321134	      0.79509693	     96.97938172	      4.78655760	     63.11147850	    121.10136525	    102.35689662	     87.94071826	      9.87186116	     53.42528422	    131.67178143	     86.51103993
      5.50000000	     -7.30597807	      0.04187536	      0.02193446	      0.28177630	      0.84446531	     -0.04236829	      5.65450381	     -5.19824131	    -13.72094953	      2.88235705	      0.05030662	      4.08676190	      0.29640877	     -7.49999987	      6.58736060	     -8.06696701	    -20.84085247	      3.78565688	      0.06607218	      4.11277665	      3.13771768	     -7.49999987	     -5.49544236	     -1.15520982	      0.63994315	     96.88516226	      5.21746975	     62.95908129	    123.11540396	    102.21614493	     88.04822462	      9.40277404	     54.57645228	    129.18221405	     85.27409977
      5.51666670	     -7.62335367	      0.07305196	     -0.06817470	      0.28145808	      0.83328364	     -0.04221259	      5.58978478	     -5.14613542	    -13.45571035	      2.17592195	      0.03797700	      4.54355099	      0.32213994	     -7.49999987	      6.46919590	     -7.79945273	    -20.63640750	      2.88320280	      0.05032138	      4.51052054	      3.29552544	     -7.49999987	     -4.84257353	     -1.04386585	      0.76050985	     97.38253365	      5.73153745	     62.68892725	    123.60158547	    102.26619322	     88.27763968	      8.85214941	     54.32199300	    128.52472144	     85.31235331
      5.53333330	     -7.51307641	      0.28466343	     -0.31323012	      0.28597955	      0.84810543	     -0.04197703	      4.95142127	     -5.25788940	    -13.25794172	      1.36737312	      0.02386516	      4.43631766	      1.12279548	     -7.49999987	      5.67394277	     -7.41720927	    -21.25107090	      1.82279377	      0.03181375	      4.25982751	      4.47914490	     -7.49999987	     -4.64931608	     -1.58755224	      0.37099460	     96.07050628	      5.84372302	     62.94812279	    123.55116958	    102.88778665	     87.33787342	      8.54773816	     54.98041720	    128.73389787	     85.87597700
      5.55000000	     -7.51731256	      0.33827701	     -0.71166631	      0.28484642	      0.85190594	     -0.04151968	      4.74786278	     -5.23570895	    -13.04507541	      0.93608959	      0.01633785	      4.22005695	      1.83218709	     -7.49999987	      5.18156107	     -7.27509875	    -21.73219455	      1.23465313	      0.02154876	      3.99267349	      5.30202904	     -7.49999987	     -4.30873054	     -1.75061439	      0.10018107	     94.44204252	      6.36261111	     63.89578522	    123.71668016	    105.15011238	     86.00723332	      7.83479535	     55.77411651	    129.95528076	     88.11968503
      5.56666670	     -7.42325784	      0.33791383	     -1.01850385	      0.28425569	      0.85390475	     -0.04126360	      4.53350181	     -5.15931402	    -12.85056124	      0.67809078	      0.01183492	      3.69885035	      2.16245066	     -7.49999987	      4.75764670	     -7.24021142	    -22.29123265	      0.94308990	      0.01646002	      3.71746863	      5.94626654	     -7.49999987	     -3.84686243	     -1.91237473	      0.17553669	     92.37244274	      6.29338970	     65.01799039	    123.33119435	    105.25957382	     84.14010847	      7.10820041	     56.73927193	    130.55319351	     88.27511740
